<?xml version="1.0" encoding="UTF-8" standalone="no"?>
<!-- Created with Inkscape (http://www.inkscape.org/) -->

<svg
   xmlns:dc="http://purl.org/dc/elements/1.1/"
   xmlns:cc="http://creativecommons.org/ns#"
   xmlns:rdf="http://www.w3.org/1999/02/22-rdf-syntax-ns#"
   xmlns:svg="http://www.w3.org/2000/svg"
   xmlns="http://www.w3.org/2000/svg"
   xmlns:sodipodi="http://sodipodi.sourceforge.net/DTD/sodipodi-0.dtd"
   xmlns:inkscape="http://www.inkscape.org/namespaces/inkscape"
   width="134.14177mm"
   height="47.096519mm"
   viewBox="0 0 134.14177 47.09652"
   version="1.1"
   id="svg43056"
   inkscape:version="0.92.4 (unknown)"
   sodipodi:docname="logo.svg">
  <defs
     id="defs43050" />
  <sodipodi:namedview
     id="base"
     pagecolor="#ffffff"
     bordercolor="#666666"
     borderopacity="1.0"
     inkscape:pageopacity="0.0"
     inkscape:pageshadow="2"
     inkscape:zoom="0.72597656"
     inkscape:cx="256.77168"
     inkscape:cy="-234.6263"
     inkscape:document-units="mm"
     inkscape:current-layer="flowRoot30198-2-1"
     showgrid="false"
     fit-margin-top="0"
     fit-margin-left="0"
     fit-margin-right="0"
     fit-margin-bottom="0"
     inkscape:window-width="2560"
     inkscape:window-height="1392"
     inkscape:window-x="0"
     inkscape:window-y="48"
     inkscape:window-maximized="1" />
  <metadata
     id="metadata43053">
    <rdf:RDF>
      <cc:Work
         rdf:about="">
        <dc:format>image/svg+xml</dc:format>
        <dc:type
           rdf:resource="http://purl.org/dc/dcmitype/StillImage" />
        <dc:title></dc:title>
      </cc:Work>
    </rdf:RDF>
  </metadata>
  <g
     inkscape:label="Layer 1"
     inkscape:groupmode="layer"
     id="layer1"
     transform="translate(11.122917,33.231721)">
    <g
       aria-label="DATA SCIENCE BOOTCAMP"
       transform="matrix(0.54806593,0,0,0.54806593,-122.53249,-151.4459)"
       style="font-style:normal;font-variant:normal;font-weight:300;font-stretch:normal;font-size:29.35066795px;line-height:24px;font-family:'Frutiger LT Arabic';-inkscape-font-specification:'Frutiger LT Arabic, Light';font-variant-ligatures:normal;font-variant-caps:normal;font-variant-numeric:normal;font-feature-settings:normal;text-align:start;letter-spacing:-24.53000069px;word-spacing:0px;writing-mode:lr-tb;text-anchor:start;fill:#ffffff;fill-opacity:1;stroke:none;stroke-width:0.48275816px;stroke-linecap:butt;stroke-linejoin:miter;stroke-opacity:1"
       id="flowRoot30198-2-1">
      <g
         id="g43744">
        <path
           inkscape:connector-curvature="0"
           id="path850-3-8-9"
           d="m -0.50854372,-33.231723 -2.26165998,6.087216 -6.33955,-1.803136 3.34915,5.563434 -5.3623103,3.832111 6.4375003,0.850321 -0.34732,6.581788 4.67877998,-4.503066 4.92948002,4.375256 -0.60367,-6.465599 6.4942207,-1.125918 -5.4314407,-3.55949 3.168571,-5.779148 -6.169101,2.026888 z m 0.0988,5.76812 a 5.40625,5.40625 0 0 1 5.40634002,5.406422 5.40625,5.40625 0 0 1 -3.257,4.953545 l -0.23722,-0.58932 c -0.25213,-0.626149 -0.60929002,-1.514395 -0.79402002,-1.973855 l -0.2237,-0.556852 a 1.9816111,1.9816111 0 0 0 1.11990002,-1.78257 1.9816111,1.9816111 0 0 0 -1.98155002,-1.981607 1.9816111,1.9816111 0 0 0 -1.98166998,1.981607 1.9816111,1.9816111 0 0 0 1.1203,1.781977 c -0.0794,0.197064 -0.30099,0.747742 -0.66088,1.641353 -0.32136,0.798275 -0.48657,1.209117 -0.60687,1.508469 a 5.40625,5.40625 0 0 1 -3.30984,-4.982747 5.40625,5.40625 0 0 1 5.40614998,-5.406422 z"
           style="opacity:1;fill:#ffffff;fill-opacity:1;stroke:none;stroke-width:0.75;stroke-linecap:butt;stroke-linejoin:round;stroke-miterlimit:4;stroke-dasharray:none;stroke-dashoffset:0;stroke-opacity:1"
           transform="matrix(1.824598,0,0,1.824598,223.57253,276.32789)" />
        <g
           id="flowRoot976-7-8-1"
           style="font-style:normal;font-variant:normal;font-weight:300;font-stretch:normal;font-size:29.35066795px;line-height:24px;font-family:'Frutiger LT Arabic';-inkscape-font-specification:'Frutiger LT Arabic, Light';font-variant-ligatures:normal;font-variant-caps:normal;font-variant-numeric:normal;font-feature-settings:normal;text-align:start;letter-spacing:-24.53000069px;word-spacing:0px;writing-mode:lr-tb;text-anchor:start;fill:#ffffff;fill-opacity:1;stroke:none;stroke-width:0.38624081px;stroke-linecap:butt;stroke-linejoin:miter;stroke-opacity:1"
           transform="matrix(1.2498891,0,0,1.2498891,1377.2534,34.381357)"
           aria-label="JOSA">
          <path
             inkscape:connector-curvature="0"
             id="path30189-7-9"
             style="font-style:normal;font-variant:normal;font-weight:normal;font-stretch:normal;font-family:Aleo;-inkscape-font-specification:Aleo;letter-spacing:1px;fill:#ffffff;stroke-width:0.38624081px"
             d="m -900.39014,169.85623 c -0.46961,0 -0.88052,-0.0587 -1.17402,-0.14675 -0.29351,-0.0881 -0.52832,-0.11741 -0.70442,-0.11741 -0.1761,0 -0.35221,0.0587 -0.46961,0.17611 -0.1174,0.1174 -0.23481,0.82182 -0.32286,2.05454 1.02728,0.29351 2.05455,0.41091 3.05247,0.41091 0.99792,0 1.9078,-0.1761 2.72961,-0.52831 2.52416,-1.05662 3.81559,-3.37532 3.81559,-6.98546 V 153.097 l 1.64364,-0.32286 c 0.2935,-0.0587 0.46961,-0.26415 0.46961,-0.55766 v -1.23273 h -7.33767 v 1.23273 c 0,0.29351 0.1174,0.49896 0.41091,0.55766 0.17611,0.0587 0.85117,0.17611 1.9665,0.35221 v 11.68157 c 0,3.37532 -1.37949,5.07766 -4.07975,5.07766 z" />
          <path
             inkscape:connector-curvature="0"
             id="path30191-5-9"
             style="font-style:normal;font-variant:normal;font-weight:normal;font-stretch:normal;font-family:Aleo;-inkscape-font-specification:Aleo;letter-spacing:1px;fill:#ffffff;stroke-width:0.38624081px"
             d="m -869.84264,161.49129 c 0,-1.58494 -0.23481,-3.02312 -0.73377,-4.3439 -0.49896,-1.32078 -1.20337,-2.46546 -2.11325,-3.40468 -0.90987,-0.93922 -1.99584,-1.67298 -3.28727,-2.2013 -1.29143,-0.52831 -2.70026,-0.79246 -4.2265,-0.79246 -1.52623,0 -2.93506,0.26415 -4.22649,0.79246 -1.29143,0.52832 -2.37741,1.29143 -3.28728,2.23065 -0.90987,0.93923 -1.61428,2.0839 -2.11325,3.40468 -0.49896,1.32078 -0.76311,2.75896 -0.76311,4.3439 0,1.58494 0.26415,3.02312 0.76311,4.3439 0.49897,1.32078 1.20338,2.46546 2.11325,3.40468 0.90987,0.93922 1.99585,1.67298 3.28728,2.2013 1.29143,0.52831 2.70026,0.82182 4.22649,0.82182 1.52624,0 2.93507,-0.29351 4.2265,-0.82182 1.29143,-0.52832 2.34805,-1.26208 3.25792,-2.2013 0.90987,-0.93922 1.61429,-2.0839 2.11325,-3.40468 0.49896,-1.32078 0.73377,-2.72961 0.73377,-4.31455 z m -2.93507,0.0587 c 0,1.29143 -0.1761,2.43611 -0.52831,3.46338 -0.35221,1.02727 -0.85117,1.87844 -1.49688,2.58286 -0.64572,0.70441 -1.40884,1.26208 -2.34806,1.64364 -0.93922,0.38155 -1.96649,0.58701 -3.08182,0.58701 -1.11532,0 -2.1426,-0.20546 -3.08182,-0.58701 -0.93922,-0.38156 -1.70234,-0.93923 -2.34805,-1.64364 -0.64572,-0.70442 -1.17403,-1.55559 -1.52624,-2.58286 -0.3522,-1.02727 -0.52831,-2.17195 -0.52831,-3.46338 0,-1.29143 0.17611,-2.46546 0.52831,-3.49273 0.35221,-1.02727 0.88052,-1.90779 1.52624,-2.61221 0.64571,-0.70441 1.40883,-1.23273 2.34805,-1.61428 0.93922,-0.38156 1.93715,-0.55767 3.05247,-0.55767 1.11533,0 2.17195,0.17611 3.11117,0.55767 0.93922,0.38155 1.70234,0.90987 2.34806,1.61428 0.64571,0.70442 1.11532,1.58494 1.46753,2.61221 0.35221,1.02727 0.52831,2.2013 0.52831,3.49273 z" />
          <path
             inkscape:connector-curvature="0"
             id="path30193-70-3"
             style="font-style:normal;font-variant:normal;font-weight:normal;font-stretch:normal;font-family:Aleo;-inkscape-font-specification:Aleo;letter-spacing:1px;fill:#ffffff;stroke-width:0.38624081px"
             d="m -857.96999,160.87493 c -0.70442,-0.29351 -1.93715,-0.73377 -3.69819,-1.32078 -0.61636,-0.20546 -1.17402,-0.44026 -1.64363,-0.73377 -1.05663,-0.58701 -1.58494,-1.40883 -1.58494,-2.43611 0,-0.93922 0.35221,-1.76104 0.99792,-2.34805 0.70442,-0.64571 1.70234,-0.93922 2.93507,-0.93922 0.99792,0 2.17195,0.20545 3.46338,0.55766 0.1174,1.70234 0.20545,2.55351 0.20545,2.61221 0.0587,0.35221 0.26416,0.49896 0.61637,0.49896 h 1.40883 v -4.84286 c -1.99585,-0.82182 -3.96234,-1.17402 -5.89949,-1.17402 -1.93714,0 -3.49273,0.58701 -4.6961,1.76104 -1.11533,1.11532 -1.67299,2.40675 -1.67299,3.99169 0,1.67298 0.49896,2.99376 1.55558,3.93299 0.46962,0.4109 1.02728,0.79246 1.61429,1.05662 0.58701,0.26416 1.81974,0.64571 3.69819,1.23273 0.58701,0.1761 1.11532,0.41091 1.58493,0.70441 1.05663,0.58702 1.58494,1.46754 1.58494,2.58286 0,1.17403 -0.35221,2.0839 -1.11533,2.78832 -0.35221,0.3522 -0.82182,0.61636 -1.35013,0.79246 -0.52831,0.17611 -1.23273,0.29351 -2.17195,0.29351 -0.93922,0 -2.11325,-0.29351 -3.58078,-0.82182 0,0 -0.0294,-0.46961 -0.088,-1.29143 -0.0587,-0.82182 -0.1174,-1.32078 -0.14675,-1.43818 -0.0587,-0.35221 -0.23481,-0.49896 -0.58702,-0.49896 h -1.43818 v 5.28312 l 0.85117,0.29351 c 0.58701,0.1761 1.35013,0.38155 2.34805,0.55766 0.99792,0.1761 1.9665,0.26415 2.87637,0.26415 2.17195,0 3.93299,-0.61636 5.22442,-1.90779 1.23272,-1.23273 1.81974,-2.78831 1.81974,-4.72546 0,-2.2013 -1.05663,-3.78623 -3.16987,-4.72545 z" />
          <path
             inkscape:connector-curvature="0"
             id="path30195-2-4"
             style="font-style:normal;font-variant:normal;font-weight:normal;font-stretch:normal;font-family:Aleo;-inkscape-font-specification:Aleo;letter-spacing:1px;fill:#ffffff;stroke-width:0.38624081px"
             d="m -832.48001,170.35519 -1.17403,-0.35221 -7.60182,-19.01923 h -2.87637 l -7.63117,19.01923 -1.17403,0.35221 c -0.23481,0.0587 -0.38156,0.20546 -0.38156,0.46961 v 1.17403 h 6.01689 v -1.17403 c 0,-0.26415 -0.1174,-0.41091 -0.38156,-0.46961 l -1.20338,-0.35221 1.64364,-4.22649 h 9.06936 l 1.64363,4.22649 -1.20337,0.35221 c -0.26416,0.0587 -0.41091,0.20546 -0.41091,0.46961 v 1.17403 h 6.04623 v -1.17403 c 0,-0.26415 -0.14675,-0.41091 -0.38155,-0.46961 z m -13.97092,-6.63325 3.14052,-8.07143 c 0.1761,-0.46961 0.35221,-1.11533 0.58701,-1.99585 0.20546,0.79247 0.41091,1.43818 0.64572,1.9665 l 3.11117,8.10078 z" />
        </g>
        <path
           id="path43674"
           style="font-style:normal;font-variant:normal;font-weight:800;font-stretch:normal;font-family:Lato;-inkscape-font-specification:'Lato Ultra-Bold';letter-spacing:0px;fill:#ffffff;stroke-width:0.48275816px"
           d="m 267.88771,265.70977 q 0,2.33338 -0.79246,4.29987 -0.7778,1.95182 -2.21598,3.36065 -1.42351,1.40884 -3.43403,2.20131 -2.01052,0.79246 -4.4613,0.79246 h -8.18884 v -21.29391 h 8.18884 q 2.45078,0 4.4613,0.79247 2.01052,0.79247 3.43403,2.21598 1.43818,1.40883 2.21598,3.36065 0.79246,1.95182 0.79246,4.27052 z m -4.52,0 q 0,-1.67299 -0.44026,-3.00844 -0.44026,-1.33546 -1.26208,-2.26 -0.82182,-0.92455 -2.01052,-1.42351 -1.17403,-0.49896 -2.67091,-0.49896 h -3.75689 v 14.3965 h 3.75689 q 1.49688,0 2.67091,-0.48429 1.1887,-0.49896 2.01052,-1.4235 0.82182,-0.93923 1.26208,-2.27468 0.44026,-1.33546 0.44026,-3.02312 z"
           inkscape:connector-curvature="0" />
        <path
           id="path43676"
           style="font-style:normal;font-variant:normal;font-weight:800;font-stretch:normal;font-family:Lato;-inkscape-font-specification:'Lato Ultra-Bold';letter-spacing:0px;fill:#ffffff;stroke-width:0.48275816px"
           d="m 289.10183,276.36406 h -3.41936 q -0.57233,0 -0.93922,-0.26415 -0.35221,-0.27883 -0.52831,-0.70442 l -1.43818,-4.06507 h -8.48235 l -1.43818,4.06507 q -0.14675,0.36688 -0.51364,0.67507 -0.36688,0.2935 -0.92454,0.2935 h -3.4487 l 8.32091,-21.29391 h 4.50533 z m -13.73612,-8.08611 h 6.33975 l -2.30403,-6.51584 q -0.20545,-0.51364 -0.44026,-1.20338 -0.22013,-0.68974 -0.44026,-1.48221 -0.20545,0.80714 -0.42558,1.51156 -0.22013,0.68974 -0.42559,1.20338 z"
           inkscape:connector-curvature="0" />
        <path
           id="path43678"
           style="font-style:normal;font-variant:normal;font-weight:800;font-stretch:normal;font-family:Lato;-inkscape-font-specification:'Lato Ultra-Bold';letter-spacing:0px;fill:#ffffff;stroke-width:0.48275816px"
           d="m 304.05186,255.07015 v 3.55143 h -6.22234 v 17.74248 h -4.41727 v -17.74248 h -6.22234 v -3.55143 z"
           inkscape:connector-curvature="0" />
        <path
           id="path43680"
           style="font-style:normal;font-variant:normal;font-weight:800;font-stretch:normal;font-family:Lato;-inkscape-font-specification:'Lato Ultra-Bold';letter-spacing:0px;fill:#ffffff;stroke-width:0.48275816px"
           d="m 323.26784,276.36406 h -3.41935 q -0.57234,0 -0.93923,-0.26415 -0.3522,-0.27883 -0.52831,-0.70442 l -1.43818,-4.06507 h -8.48234 l -1.43819,4.06507 q -0.14675,0.36688 -0.51363,0.67507 -0.36689,0.2935 -0.92455,0.2935 h -3.4487 l 8.32091,-21.29391 h 4.50533 z m -13.73611,-8.08611 h 6.33974 l -2.30403,-6.51584 q -0.20545,-0.51364 -0.44026,-1.20338 -0.22013,-0.68974 -0.44026,-1.48221 -0.20545,0.80714 -0.42558,1.51156 -0.22013,0.68974 -0.42559,1.20338 z"
           inkscape:connector-curvature="0" />
        <path
           id="path43682"
           style="font-style:normal;font-variant:normal;font-weight:800;font-stretch:normal;font-family:Lato;-inkscape-font-specification:'Lato Ultra-Bold';letter-spacing:0px;fill:#ffffff;stroke-width:0.48275816px"
           d="m 342.76402,259.1499 q -0.20545,0.33753 -0.42558,0.49896 -0.20546,0.14675 -0.54299,0.14675 -0.32286,0 -0.70442,-0.22013 -0.36688,-0.2348 -0.86584,-0.49896 -0.49896,-0.26416 -1.14468,-0.48429 -0.64571,-0.2348 -1.51156,-0.2348 -1.52623,0 -2.28935,0.68974 -0.76312,0.67506 -0.76312,1.77571 0,0.70442 0.41091,1.17403 0.42559,0.45494 1.10065,0.79247 0.68974,0.33753 1.55559,0.60169 0.86584,0.26415 1.77571,0.58701 0.90987,0.30818 1.77572,0.73377 0.86584,0.42558 1.54091,1.0713 0.68974,0.64571 1.10065,1.58493 0.42558,0.92455 0.42558,2.26 0,1.45286 -0.51363,2.72962 -0.49896,1.26208 -1.45286,2.21597 -0.9539,0.93922 -2.36273,1.48221 -1.39416,0.54299 -3.16987,0.54299 -1.0126,0 -2.0252,-0.20546 -0.99792,-0.20545 -1.93714,-0.57233 -0.92455,-0.36689 -1.74637,-0.88052 -0.82182,-0.51364 -1.43818,-1.14468 l 1.29143,-2.0839 q 0.16143,-0.2348 0.42558,-0.38156 0.26416,-0.16143 0.55767,-0.16143 0.39623,0 0.83649,0.29351 0.44026,0.29351 1.0126,0.64572 0.57234,0.3522 1.32078,0.64571 0.76312,0.29351 1.81974,0.29351 1.54091,0 2.37741,-0.70442 0.85116,-0.70441 0.85116,-2.09857 0,-0.80714 -0.42558,-1.30611 -0.41091,-0.49896 -1.08597,-0.83649 -0.67507,-0.33753 -1.54091,-0.57234 -0.86585,-0.24948 -1.77572,-0.54299 -0.90987,-0.2935 -1.77572,-0.70441 -0.86584,-0.41091 -1.54091,-1.08598 -0.67506,-0.67506 -1.10065,-1.67298 -0.41091,-0.99793 -0.41091,-2.48014 0,-1.1887 0.46962,-2.30402 0.46961,-1.11533 1.37948,-1.98117 0.90987,-0.86585 2.23065,-1.39416 1.33545,-0.52831 3.05247,-0.52831 1.92247,0 3.55143,0.60169 1.64364,0.58701 2.77364,1.64363 z"
           inkscape:connector-curvature="0" />
        <path
           id="path43684"
           style="font-style:normal;font-variant:normal;font-weight:800;font-stretch:normal;font-family:Lato;-inkscape-font-specification:'Lato Ultra-Bold';letter-spacing:0px;fill:#ffffff;stroke-width:0.48275816px"
           d="m 361.89423,271.12497 q 0.36689,0 0.61637,0.26415 l 1.74636,1.86377 q -1.29143,1.64364 -3.2139,2.49481 -1.90779,0.85117 -4.54935,0.85117 -2.39208,0 -4.29987,-0.80714 -1.9078,-0.82182 -3.24325,-2.27468 -1.33546,-1.45286 -2.05455,-3.44871 -0.71909,-1.99584 -0.71909,-4.35857 0,-1.58494 0.33753,-3.00844 0.35221,-1.43819 1.0126,-2.64156 0.66039,-1.20338 1.58494,-2.17195 0.93922,-0.96857 2.11325,-1.64364 1.17402,-0.68974 2.5535,-1.04195 1.39416,-0.36688 2.96442,-0.36688 1.17403,0 2.21598,0.20545 1.05662,0.20546 1.96649,0.57234 0.90987,0.36688 1.67299,0.8952 0.77779,0.51363 1.39416,1.13 l -1.48221,2.02519 q -0.13208,0.19078 -0.33754,0.33754 -0.20545,0.14675 -0.55766,0.14675 -0.35221,0 -0.71909,-0.24948 -0.35221,-0.24948 -0.88052,-0.55766 -0.51364,-0.30819 -1.3061,-0.55767 -0.7778,-0.24948 -1.98117,-0.24948 -1.33546,0 -2.45079,0.48429 -1.11532,0.48428 -1.92246,1.40883 -0.79247,0.90987 -1.23273,2.24533 -0.44026,1.33545 -0.44026,3.03779 0,1.71701 0.46961,3.06715 0.48428,1.33545 1.3061,2.26 0.8365,0.92454 1.93715,1.40883 1.11532,0.46961 2.3774,0.46961 0.74844,0 1.35013,-0.0734 0.61637,-0.0734 1.13,-0.24948 0.52832,-0.1761 0.98325,-0.45493 0.46961,-0.27883 0.93922,-0.70442 0.16143,-0.13208 0.33753,-0.22013 0.17611,-0.088 0.38156,-0.088 z"
           inkscape:connector-curvature="0" />
        <path
           id="path43686"
           style="font-style:normal;font-variant:normal;font-weight:800;font-stretch:normal;font-family:Lato;-inkscape-font-specification:'Lato Ultra-Bold';letter-spacing:0px;fill:#ffffff;stroke-width:0.48275816px"
           d="m 371.14566,276.36406 h -4.43195 v -21.29391 h 4.43195 z"
           inkscape:connector-curvature="0" />
        <path
           id="path43688"
           style="font-style:normal;font-variant:normal;font-weight:800;font-stretch:normal;font-family:Lato;-inkscape-font-specification:'Lato Ultra-Bold';letter-spacing:0px;fill:#ffffff;stroke-width:0.48275816px"
           d="m 389.15917,255.07015 v 3.44871 h -9.12805 v 5.4739 h 7.10286 v 3.3313 h -7.10286 v 5.5913 h 9.12805 v 3.4487 h -13.56 v -21.29391 z"
           inkscape:connector-curvature="0" />
        <path
           id="path43690"
           style="font-style:normal;font-variant:normal;font-weight:800;font-stretch:normal;font-family:Lato;-inkscape-font-specification:'Lato Ultra-Bold';letter-spacing:0px;fill:#ffffff;stroke-width:0.48275816px"
           d="m 394.77157,255.07015 q 0.27883,0 0.46961,0.0293 0.20545,0.0147 0.36688,0.10273 0.16143,0.0734 0.30818,0.20546 0.14676,0.13207 0.32286,0.3522 l 10.68364,13.57469 q -0.0587,-0.55766 -0.088,-1.08598 -0.0294,-0.52831 -0.0294,-0.99792 V 255.0701 h 3.88896 v 21.29391 h -2.27467 q -0.51364,0 -0.86585,-0.16143 -0.3522,-0.1761 -0.68974,-0.58701 l -10.61026,-13.48663 q 0.044,0.51364 0.0587,1.0126 0.0294,0.48428 0.0294,0.90987 v 12.3126 h -3.88897 V 255.0701 h 2.31871 z"
           inkscape:connector-curvature="0" />
        <path
           id="path43692"
           style="font-style:normal;font-variant:normal;font-weight:800;font-stretch:normal;font-family:Lato;-inkscape-font-specification:'Lato Ultra-Bold';letter-spacing:0px;fill:#ffffff;stroke-width:0.48275816px"
           d="m 429.65301,271.12497 q 0.36688,0 0.61636,0.26415 l 1.74637,1.86377 q -1.29143,1.64364 -3.2139,2.49481 -1.9078,0.85117 -4.54936,0.85117 -2.39208,0 -4.29987,-0.80714 -1.90779,-0.82182 -3.24325,-2.27468 -1.33545,-1.45286 -2.05454,-3.44871 -0.7191,-1.99584 -0.7191,-4.35857 0,-1.58494 0.33754,-3.00844 0.3522,-1.43819 1.01259,-2.64156 0.6604,-1.20338 1.58494,-2.17195 0.93922,-0.96857 2.11325,-1.64364 1.17403,-0.68974 2.55351,-1.04195 1.39415,-0.36688 2.96441,-0.36688 1.17403,0 2.21598,0.20545 1.05662,0.20546 1.96649,0.57234 0.90988,0.36688 1.67299,0.8952 0.7778,0.51363 1.39416,1.13 l -1.48221,2.02519 q -0.13208,0.19078 -0.33753,0.33754 -0.20546,0.14675 -0.55766,0.14675 -0.35221,0 -0.7191,-0.24948 -0.3522,-0.24948 -0.88052,-0.55766 -0.51363,-0.30819 -1.3061,-0.55767 -0.77779,-0.24948 -1.98117,-0.24948 -1.33546,0 -2.45078,0.48429 -1.11533,0.48428 -1.92247,1.40883 -0.79247,0.90987 -1.23273,2.24533 -0.44026,1.33545 -0.44026,3.03779 0,1.71701 0.46961,3.06715 0.48429,1.33545 1.30611,2.26 0.83649,0.92454 1.93714,1.40883 1.11533,0.46961 2.37741,0.46961 0.74844,0 1.35013,-0.0734 0.61636,-0.0734 1.13,-0.24948 0.52831,-0.1761 0.98324,-0.45493 0.46961,-0.27883 0.93923,-0.70442 0.16142,-0.13208 0.33753,-0.22013 0.1761,-0.088 0.38156,-0.088 z"
           inkscape:connector-curvature="0" />
        <path
           id="path43694"
           style="font-style:normal;font-variant:normal;font-weight:800;font-stretch:normal;font-family:Lato;-inkscape-font-specification:'Lato Ultra-Bold';letter-spacing:0px;fill:#ffffff;stroke-width:0.48275816px"
           d="m 448.03248,255.07015 v 3.44871 h -9.12806 v 5.4739 h 7.10286 v 3.3313 h -7.10286 v 5.5913 h 9.12806 v 3.4487 h -13.56001 v -21.29391 z"
           inkscape:connector-curvature="0" />
        <path
           id="path43696"
           style="font-style:normal;font-variant:normal;font-weight:500;font-stretch:normal;font-family:Lato;-inkscape-font-specification:'Lato Medium';letter-spacing:0px;fill:#ffffff;stroke-width:0.48275816px"
           d="m 249.19134,301.39077 v -21.05911 h 6.80935 q 1.9665,0 3.37533,0.38156 1.40883,0.38156 2.3187,1.10065 0.90987,0.70442 1.33546,1.73169 0.44026,1.02727 0.44026,2.30403 0,0.76311 -0.24948,1.48221 -0.23481,0.70441 -0.71909,1.32078 -0.48429,0.60168 -1.21806,1.10065 -0.73376,0.48428 -1.71701,0.79246 2.27468,0.45494 3.43403,1.67299 1.17402,1.20338 1.17402,3.14052 0,1.35013 -0.49896,2.46546 -0.49896,1.10065 -1.45286,1.89312 -0.95389,0.79247 -2.34805,1.23273 -1.37948,0.44026 -3.1552,0.44026 z m 3.02312,-9.53897 v 7.13221 h 4.4613 q 1.20338,0 2.05454,-0.27883 0.85117,-0.27883 1.39416,-0.76312 0.54299,-0.49896 0.79247,-1.17402 0.26416,-0.67507 0.26416,-1.48221 0,-1.58494 -1.11533,-2.50949 -1.11532,-0.92454 -3.39,-0.92454 z m 0,-2.1426 h 3.65415 q 1.17403,0 2.03988,-0.24948 0.86584,-0.24948 1.4235,-0.70442 0.57234,-0.45493 0.85117,-1.10065 0.27883,-0.64571 0.27883,-1.43818 0,-1.81974 -1.10065,-2.65623 -1.08597,-0.85117 -3.36065,-0.85117 h -3.78623 z"
           inkscape:connector-curvature="0" />
        <path
           id="path43698"
           style="font-style:normal;font-variant:normal;font-weight:500;font-stretch:normal;font-family:Lato;-inkscape-font-specification:'Lato Medium';letter-spacing:0px;fill:#ffffff;stroke-width:0.48275816px"
           d="m 287.78563,290.85388 q 0,2.36272 -0.76312,4.3439 -0.74844,1.98117 -2.11324,3.40467 -1.36481,1.42351 -3.28728,2.21598 -1.92247,0.79247 -4.25585,0.79247 -2.33337,0 -4.25584,-0.79247 -1.9078,-0.79247 -3.28728,-2.21598 -1.37948,-1.4235 -2.1426,-3.40467 -0.74844,-1.98118 -0.74844,-4.3439 0,-2.34806 0.74844,-4.32923 0.76312,-1.98117 2.1426,-3.40467 1.37948,-1.42351 3.28728,-2.21598 1.92247,-0.80714 4.25584,-0.80714 2.33338,0 4.25585,0.80714 1.92247,0.79247 3.28728,2.21598 1.3648,1.4235 2.11324,3.40467 0.76312,1.98117 0.76312,4.32923 z m -3.09649,0 q 0,-1.89312 -0.51364,-3.40468 -0.51364,-1.51156 -1.48221,-2.55351 -0.9539,-1.05662 -2.30403,-1.61429 -1.35013,-0.55766 -3.02312,-0.55766 -1.67298,0 -3.03779,0.55766 -1.35013,0.55767 -2.3187,1.61429 -0.9539,1.04195 -1.48221,2.55351 -0.51364,1.51156 -0.51364,3.40468 0,1.90779 0.51364,3.41935 0.52831,1.51156 1.48221,2.55351 0.96857,1.04195 2.3187,1.59961 1.36481,0.55766 3.03779,0.55766 1.67299,0 3.02312,-0.55766 1.35013,-0.55766 2.30403,-1.59961 0.96857,-1.04195 1.48221,-2.55351 0.51364,-1.51156 0.51364,-3.41935 z"
           inkscape:connector-curvature="0" />
        <path
           id="path43700"
           style="font-style:normal;font-variant:normal;font-weight:500;font-stretch:normal;font-family:Lato;-inkscape-font-specification:'Lato Medium';letter-spacing:0px;fill:#ffffff;stroke-width:0.48275816px"
           d="m 311.2891,290.85388 q 0,2.36272 -0.76312,4.3439 -0.74844,1.98117 -2.11325,3.40467 -1.36481,1.42351 -3.28727,2.21598 -1.92247,0.79247 -4.25585,0.79247 -2.33338,0 -4.25585,-0.79247 -1.90779,-0.79247 -3.28727,-2.21598 -1.37948,-1.4235 -2.1426,-3.40467 -0.74844,-1.98118 -0.74844,-4.3439 0,-2.34806 0.74844,-4.32923 0.76312,-1.98117 2.1426,-3.40467 1.37948,-1.42351 3.28727,-2.21598 1.92247,-0.80714 4.25585,-0.80714 2.33338,0 4.25585,0.80714 1.92246,0.79247 3.28727,2.21598 1.36481,1.4235 2.11325,3.40467 0.76312,1.98117 0.76312,4.32923 z m -3.0965,0 q 0,-1.89312 -0.51364,-3.40468 -0.51363,-1.51156 -1.48221,-2.55351 -0.95389,-1.05662 -2.30402,-1.61429 -1.35013,-0.55766 -3.02312,-0.55766 -1.67299,0 -3.0378,0.55766 -1.35013,0.55767 -2.3187,1.61429 -0.95389,1.04195 -1.48221,2.55351 -0.51363,1.51156 -0.51363,3.40468 0,1.90779 0.51363,3.41935 0.52832,1.51156 1.48221,2.55351 0.96857,1.04195 2.3187,1.59961 1.36481,0.55766 3.0378,0.55766 1.67299,0 3.02312,-0.55766 1.35013,-0.55766 2.30402,-1.59961 0.96858,-1.04195 1.48221,-2.55351 0.51364,-1.51156 0.51364,-3.41935 z"
           inkscape:connector-curvature="0" />
        <path
           id="path43702"
           style="font-style:normal;font-variant:normal;font-weight:500;font-stretch:normal;font-family:Lato;-inkscape-font-specification:'Lato Medium';letter-spacing:0px;fill:#ffffff;stroke-width:0.48275816px"
           d="m 328.63626,280.33166 v 2.53883 h -6.73598 v 18.52028 h -3.02312 v -18.52028 h -6.75065 v -2.53883 z"
           inkscape:connector-curvature="0" />
        <path
           id="path43704"
           style="font-style:normal;font-variant:normal;font-weight:500;font-stretch:normal;font-family:Lato;-inkscape-font-specification:'Lato Medium';letter-spacing:0px;fill:#ffffff;stroke-width:0.48275816px"
           d="m 345.49959,296.92946 q 0.24948,0 0.44026,0.19078 l 1.20338,1.32078 q -1.29143,1.51156 -3.1552,2.34806 -1.84909,0.83649 -4.44662,0.83649 -2.28936,0 -4.15312,-0.79247 -1.8491,-0.79246 -3.16988,-2.21597 -1.3061,-1.42351 -2.02519,-3.40468 -0.70442,-1.98117 -0.70442,-4.35857 0,-2.37741 0.74844,-4.35858 0.74845,-1.98117 2.11325,-3.39 1.36481,-1.42351 3.25793,-2.21598 1.90779,-0.79246 4.19714,-0.79246 2.24533,0 3.97702,0.73376 1.74636,0.73377 3.03779,1.95182 l -0.99792,1.40883 q -0.10273,0.14676 -0.24948,0.24949 -0.13208,0.0881 -0.38156,0.0881 -0.27883,0 -0.66039,-0.27883 -0.36688,-0.27884 -0.98325,-0.61637 -0.60169,-0.35221 -1.51156,-0.63104 -0.90987,-0.27883 -2.24532,-0.27883 -1.58494,0 -2.92039,0.55766 -1.32078,0.55767 -2.27468,1.59962 -0.9539,1.04194 -1.48221,2.5535 -0.52831,1.51156 -0.52831,3.41936 0,1.93714 0.54299,3.46338 0.55766,1.51155 1.51155,2.5535 0.96858,1.04195 2.27468,1.59961 1.30611,0.54299 2.80299,0.54299 0.92455,0 1.65831,-0.10273 0.73377,-0.1174 1.35013,-0.33753 0.63104,-0.22013 1.17403,-0.57234 0.54299,-0.3522 1.08598,-0.83649 0.1174,-0.10273 0.2348,-0.16143 0.13208,-0.0734 0.27883,-0.0734 z"
           inkscape:connector-curvature="0" />
        <path
           id="path43706"
           style="font-style:normal;font-variant:normal;font-weight:500;font-stretch:normal;font-family:Lato;-inkscape-font-specification:'Lato Medium';letter-spacing:0px;fill:#ffffff;stroke-width:0.48275816px"
           d="m 367.65843,301.39077 h -2.34805 q -0.39624,0 -0.64572,-0.19078 -0.24948,-0.20546 -0.38156,-0.52832 l -1.89311,-4.94558 h -9.34819 l -1.89312,4.94558 q -0.0881,0.27884 -0.36688,0.49897 -0.26416,0.22013 -0.64572,0.22013 h -2.34805 l 8.39429,-21.05911 h 3.06715 z m -13.78014,-7.83663 h 7.6752 l -3.18454,-8.29157 q -0.16143,-0.39623 -0.33754,-0.90987 -0.16143,-0.52831 -0.32285,-1.14467 -0.16143,0.61636 -0.32286,1.14467 -0.16143,0.52832 -0.32286,0.92455 z"
           inkscape:connector-curvature="0" />
        <path
           id="path43708"
           style="font-style:normal;font-variant:normal;font-weight:500;font-stretch:normal;font-family:Lato;-inkscape-font-specification:'Lato Medium';letter-spacing:0px;fill:#ffffff;stroke-width:0.48275816px"
           d="m 380.72498,293.58349 q 0.36688,0.73377 0.68974,1.58493 0.16143,-0.42558 0.32286,-0.82181 0.1761,-0.41091 0.38156,-0.79247 l 6.98546,-12.70884 q 0.19077,-0.36688 0.4109,-0.44026 0.23481,-0.0734 0.63104,-0.0734 h 2.24533 v 21.05911 h -2.65624 V 286.2458 q 0,-0.32286 0.0147,-0.68974 0.0147,-0.36688 0.044,-0.74844 l -7.07351,12.94364 q -0.16143,0.33754 -0.45494,0.51364 -0.27883,0.1761 -0.63104,0.1761 h -0.42558 q -0.74845,0 -1.10065,-0.68974 l -7.22027,-13.00234 q 0.0294,0.39623 0.0587,0.77779 0.0294,0.38156 0.0294,0.71909 v 15.14495 h -2.65623 v -21.05911 h 2.24532 q 0.39624,0 0.61637,0.0734 0.2348,0.0734 0.42558,0.44026 l 7.11754,12.73819 z"
           inkscape:connector-curvature="0" />
        <path
           id="path43710"
           style="font-style:normal;font-variant:normal;font-weight:500;font-stretch:normal;font-family:Lato;-inkscape-font-specification:'Lato Medium';letter-spacing:0px;fill:#ffffff;stroke-width:0.48275816px"
           d="m 400.68756,293.59816 v 7.79261 h -3.02312 v -21.05911 h 6.32507 q 2.01052,0 3.49273,0.46961 1.49688,0.46961 2.46545,1.33546 0.98325,0.85117 1.46753,2.06922 0.48429,1.20338 0.48429,2.68559 0,1.4822 -0.51364,2.71493 -0.51363,1.21806 -1.51156,2.11325 -0.99792,0.8952 -2.48013,1.39416 -1.46753,0.48428 -3.40467,0.48428 z m 0,-2.40675 h 3.30195 q 1.1887,0 2.09857,-0.30818 0.92454,-0.32286 1.54091,-0.88052 0.61636,-0.57234 0.92454,-1.36481 0.32286,-0.79247 0.32286,-1.74636 0,-0.98325 -0.30818,-1.74637 -0.29351,-0.77779 -0.90987,-1.32078 -0.60169,-0.54299 -1.52624,-0.82182 -0.90987,-0.2935 -2.14259,-0.2935 h -3.30195 z"
           inkscape:connector-curvature="0" />
      </g>
    </g>
  </g>
</svg>
